<svg width="500" height="500" viewBox="0 0 500 500" fill="none" xmlns="http://www.w3.org/2000/svg">
<path d="M147.5 17C94.7568 17 52 21.9249 52 28C52 34.0751 94.7568 39 147.5 39C167.582 39 186.216 38.285 201.594 37.0654C146.503 49.0577 104.582 81.178 94.3867 120.761C56.3955 159.844 33 213.19 33 272C33 391.846 130.154 489 250 489C369.846 489 467 391.846 467 272C467 212.484 443.039 158.565 404.239 119.36C393.426 80.4216 351.846 48.9161 297.407 37.0654C312.785 38.285 331.418 39 351.5 39C404.243 39 447 34.0751 447 28C447 21.9249 404.243 17 351.5 17C306.528 17 268.817 20.5831 258.681 25.4043C256.888 22.1814 253.449 20 249.5 20C245.551 20 242.113 22.1817 240.32 25.4043C230.185 20.5829 192.474 17 147.5 17ZM236 250H453.832C454.603 257.228 455 264.568 455 272C455 385.218 363.218 477 250 477C136.782 477 45 385.218 45 272C45 264.568 45.3967 257.228 46.168 250H209L222.5 206.125L236 250ZM80.5996 361C91.0095 420.748 162.792 467 249.8 467C336.807 467 408.59 420.748 419 361H80.5996ZM403.691 372C396.982 390.631 383.136 407.779 363.417 421.773C334.818 442.069 294.686 455 249.8 455C204.913 455 164.781 442.069 136.183 421.773C116.464 407.779 102.617 390.631 95.9082 372H403.691ZM358.5 283C343.864 283 332 294.417 332 308.5C332 322.583 343.864 334 358.5 334C373.136 334 385 322.583 385 308.5C385 294.417 373.136 283 358.5 283ZM140.5 283C125.864 283 114 294.417 114 308.5C114 322.583 125.864 334 140.5 334C155.136 334 167 322.583 167 308.5C167 294.417 155.136 283 140.5 283ZM200.563 48.5771C181.373 63.2904 169 86.4502 169 112.5C169 114.349 169.064 116.183 169.187 118H106.724C112.668 101.065 125.575 85.3737 144.332 72.5713C159.825 61.9971 178.989 53.6662 200.563 48.5771ZM298.438 48.5771C320.011 53.6662 339.176 61.9972 354.668 72.5713C373.425 85.3737 386.332 101.065 392.276 118H329.813C329.936 116.183 330 114.349 330 112.5C330 86.4505 317.627 63.2904 298.438 48.5771ZM256 43.3008C291.336 46.5782 319 76.3081 319 112.5C319 114.351 318.926 116.185 318.784 118H256V43.3008ZM243 118H180.216C180.074 116.185 180 114.351 180 112.5C180 76.3081 207.664 46.5782 243 43.3008V118ZM264.197 32.4629C264.132 32.4587 264.066 32.4543 264 32.4502V32.4111C264.065 32.4283 264.131 32.4458 264.197 32.4629ZM351.5 25C376.896 25 399.833 26.153 416.606 28C399.833 29.847 376.896 31 351.5 31C326.104 31 303.168 29.8469 286.395 28C303.168 26.1531 326.104 25 351.5 25ZM147.5 25C172.896 25 195.832 26.1531 212.605 28C195.832 29.8469 172.896 31 147.5 31C122.104 31 99.167 29.847 82.3936 28C99.167 26.153 122.104 25 147.5 25Z" fill="white"/>
</svg>
